<svg xmlns="http://www.w3.org/2000/svg" width="228" height="59" viewBox="0 0 228 59" fill="none">
  <path d="M0 33.8732C0.928683 33.8241 1.67679 33.6921 2.23592 33.4869C2.80285 33.2817 3.30438 32.9446 3.75613 32.476C4.24926 31.9583 4.59482 31.3002 4.776 30.5113C4.96497 29.714 5.05556 28.4979 5.05556 26.8535V9.08197C5.05556 7.31459 4.94878 6.01576 4.7262 5.19386C4.51263 4.37976 4.09328 3.69825 3.46936 3.17152C2.67986 2.514 1.52081 2.14444 0 2.06225V1.51992H13.2421C16.177 1.51992 18.0511 1.55232 18.8484 1.61831C22.235 1.87328 25.1122 2.83436 27.4711 4.51175C29.7155 6.09795 31.466 8.18568 32.7235 10.7588C33.9731 13.3396 34.5982 16.1509 34.5982 19.1841C34.5982 21.4032 34.2449 23.4916 33.5292 25.4641C32.8141 27.4289 31.82 29.0649 30.5536 30.3631C28.77 32.1965 26.5509 33.3639 23.8872 33.8648C21.89 34.2356 19.8599 34.4162 17.7962 34.4162H0V33.8732ZM132.216 1.51992V2.06225C131.303 2.11145 130.564 2.24283 129.988 2.4486C129.421 2.65378 128.911 2.99094 128.459 3.45948C127.835 4.1008 127.449 4.99648 127.309 6.13934C127.209 6.99363 127.16 7.97211 127.16 9.08197V26.8535C127.16 28.1932 127.227 29.2454 127.35 30.0181C127.481 30.7824 127.686 31.4076 127.982 31.8677C128.393 32.5174 128.936 32.9938 129.593 33.3063C130.251 33.6183 131.122 33.8079 132.216 33.8732V34.4162H116.878V33.8732C117.807 33.8241 118.554 33.6921 119.13 33.4785C119.697 33.2571 120.198 32.9278 120.634 32.476C121.144 31.9583 121.489 31.3092 121.669 30.5197C121.842 29.7308 121.933 28.5135 121.933 26.8535V9.08197C121.933 7.42078 121.842 6.20473 121.669 5.41583C121.489 4.62693 121.144 3.97721 120.634 3.45948C120.198 2.99094 119.697 2.65378 119.113 2.4486C118.537 2.24283 117.789 2.11145 116.878 2.06225V1.51992H132.216ZM179.974 2.06225C179.062 2.11145 178.329 2.23443 177.771 2.43181C177.22 2.63758 176.711 2.96634 176.242 3.43428C175.889 3.77144 175.625 4.14939 175.445 4.56094C175.272 4.97189 175.149 5.48962 175.083 6.11414C174.976 6.95344 174.919 7.93971 174.919 9.08197V26.8535C174.919 28.5135 175.018 29.7386 175.206 30.5443C175.404 31.35 175.749 31.9907 176.242 32.476C177.129 33.3315 178.371 33.7911 179.974 33.8732V34.4162H164.611V33.8732C165.54 33.8241 166.288 33.6921 166.863 33.4785C167.429 33.2571 167.94 32.9278 168.392 32.476C168.885 31.9583 169.23 31.3002 169.411 30.5113C169.6 29.714 169.691 28.4979 169.691 26.8535V5.29225L157.279 34.4162H156.778L144.438 5.72779V26.8535C144.438 28.5135 144.53 29.7308 144.719 30.5197C144.899 31.3092 145.245 31.9583 145.738 32.476C146.19 32.9446 146.7 33.2817 147.266 33.4869C147.842 33.6921 148.582 33.8241 149.503 33.8732V34.4162H138.397V33.8732C139.309 33.8241 140.049 33.6921 140.625 33.4869C141.192 33.2817 141.702 32.9446 142.154 32.476C142.647 31.9583 142.992 31.3002 143.173 30.5113C143.362 29.714 143.453 28.4979 143.453 26.8535V9.08197C143.453 8.34226 143.428 7.64335 143.378 6.97743C143.296 5.79378 143.116 4.9227 142.828 4.37976C142.425 3.62446 141.874 3.06473 141.176 2.70297C140.477 2.34182 139.548 2.12765 138.397 2.06225V1.51992H148.845L159.267 27.2891L170.077 1.51992H179.974V2.06225ZM227.773 2.06225C226.861 2.11145 226.13 2.23443 225.571 2.43181C225.02 2.63758 224.51 2.96634 224.042 3.43428C223.688 3.77144 223.424 4.14939 223.244 4.56094C223.072 4.97189 222.948 5.48962 222.882 6.11414C222.775 6.95344 222.718 7.93971 222.718 9.08197V26.8535C222.718 28.5135 222.817 29.7386 223.006 30.5443C223.202 31.35 223.549 31.9907 224.042 32.476C224.929 33.3315 226.171 33.7911 227.773 33.8732V34.4162H212.41V33.8732C213.34 33.8241 214.087 33.6921 214.663 33.4785C215.229 33.2571 215.739 32.9278 216.191 32.476C216.684 31.9583 217.03 31.3002 217.211 30.5113C217.4 29.714 217.491 28.4979 217.491 26.8535V5.29225L205.078 34.4162H204.577L192.238 5.72779V26.8535C192.238 28.5135 192.329 29.7308 192.518 30.5197C192.699 31.3092 193.044 31.9583 193.537 32.476C193.989 32.9446 194.5 33.2817 195.066 33.4869C195.642 33.6921 196.382 33.8241 197.302 33.8732V34.4162H186.197V33.8732C187.109 33.8241 187.849 33.6921 188.425 33.4869C188.991 33.2817 189.501 32.9446 189.953 32.476C190.447 31.9583 190.792 31.3002 190.973 30.5113C191.162 29.714 191.251 28.4979 191.251 26.8535V9.08197C191.251 8.34226 191.227 7.64335 191.178 6.97743C191.096 5.79378 190.915 4.9227 190.627 4.37976C190.225 3.62446 189.674 3.06473 188.976 2.70297C188.276 2.34182 187.347 2.12765 186.197 2.06225V1.51992H196.644L207.068 27.2891L217.877 1.51992H227.773V2.06225ZM10.2833 2.25963V26.2452C10.2833 27.8236 10.3739 29.0235 10.5461 29.8454C10.7272 30.6601 11.056 31.3668 11.5407 31.9421C12.5684 33.1995 14.2452 33.8241 16.5633 33.8241C18.5449 33.8241 20.2379 33.4953 21.6429 32.8456C23.0485 32.1965 24.3143 31.1364 25.4248 29.6732C26.5179 28.2586 27.3476 26.64 27.9229 24.8066C28.4898 22.9822 28.7784 21.0421 28.7784 18.9783C28.7784 16.7022 28.4334 14.5233 27.7423 12.4685C27.0434 10.4048 26.0577 8.60503 24.7673 7.06022C22.9831 4.92269 20.854 3.50867 18.3721 2.80976C17.0235 2.44021 15.2975 2.25963 13.2007 2.25963H10.2833ZM39.1847 18.1732C39.1847 15.4772 39.76 12.9701 40.9196 10.6688C42.0787 8.35846 43.7633 6.35291 45.974 4.63533C47.6352 3.36049 49.4188 2.39101 51.3259 1.7089C53.2409 1.02679 55.1642 0.68063 57.1044 0.68063C59.5785 0.68063 61.971 1.22356 64.2885 2.30883C66.5982 3.39349 68.6206 4.9227 70.3555 6.89585C73.183 10.109 74.5964 13.759 74.5964 17.8607C74.5964 19.916 74.2269 21.8964 73.4871 23.8119C72.7468 25.7191 71.6706 27.4619 70.256 29.0403C68.5222 30.9966 66.4752 32.5174 64.1073 33.5937C61.7406 34.6711 59.2581 35.2051 56.6773 35.2051C54.1204 35.2051 51.6793 34.6789 49.3534 33.6357C47.0185 32.5912 45.0129 31.1202 43.3277 29.2046C41.9959 27.7084 40.9688 26.0154 40.2531 24.1077C39.538 22.2089 39.1847 20.2286 39.1847 18.1732ZM45.0045 18.5182C45.0045 23.1874 46.2704 27.1163 48.8105 30.3139C49.9533 31.7447 51.1616 32.7886 52.4436 33.4377C53.7178 34.0868 55.1973 34.4162 56.8662 34.4162C58.5514 34.4162 60.0386 34.0958 61.3129 33.4539C62.5955 32.8048 63.8116 31.7609 64.9712 30.3139C67.5113 27.1001 68.7771 23.1382 68.7771 18.4276C68.7771 15.8383 68.4232 13.3888 67.7249 11.0797C67.0266 8.76941 66.0475 6.81366 64.7738 5.21006C63.7462 3.88663 62.6039 2.92495 61.3381 2.32502C60.08 1.7251 58.5838 1.42033 56.8662 1.42033C55.1643 1.42033 53.6848 1.7167 52.4436 2.31662C51.194 2.90875 50.0433 3.87103 48.9826 5.21006C47.7174 6.79686 46.7311 8.75321 46.04 11.0713C45.3495 13.3804 45.0045 15.8719 45.0045 18.5182ZM88.3569 17.6387L98.5658 7.51197C99.5767 6.51729 100.21 5.83518 100.456 5.47342C100.712 5.11167 100.835 4.71752 100.835 4.28137C100.835 3.49187 100.448 2.90035 99.6757 2.4978C99.2725 2.30043 98.5904 2.16064 97.6455 2.06225V1.51992H108.036V2.06225C107.328 2.12765 106.737 2.24283 106.26 2.41561C105.791 2.57999 105.274 2.86735 104.707 3.2699C104.081 3.71445 103.005 4.67612 101.475 6.13934L93.659 13.636L104.772 27.8236L106.145 29.5826C107.156 30.8322 108.208 31.8185 109.294 32.5252C109.951 32.953 110.534 33.2649 111.028 33.4539C111.529 33.6357 112.154 33.7743 112.91 33.8732V34.4162H96.988V33.8732C98.1962 33.7743 99.0673 33.5775 99.5935 33.2733C100.127 32.9608 100.391 32.5174 100.391 31.9169C100.391 31.2762 100.063 30.4537 99.4045 29.4596C99.0835 28.9737 98.4758 28.144 97.5957 26.9519C96.7078 25.7605 95.9603 24.7982 95.352 24.0585L89.9269 17.3267L88.3569 18.8721V26.8535C88.3569 28.4979 88.4475 29.714 88.6364 30.5113C88.817 31.3002 89.1626 31.9583 89.6557 32.476C90.0913 32.9278 90.5922 33.2571 91.1675 33.4785C91.735 33.6921 92.4916 33.8241 93.4202 33.8732V34.4162H78.0736V33.8732C79.0023 33.8241 79.7504 33.6921 80.3257 33.4785C80.8932 33.2571 81.3941 32.9278 81.8297 32.476C82.3402 31.9583 82.6852 31.3092 82.8652 30.5197C83.0385 29.7308 83.1291 28.5135 83.1291 26.8535V9.08197C83.1291 7.42078 83.0385 6.20473 82.8652 5.41583C82.6852 4.62693 82.3402 3.97721 81.8297 3.45948C81.3941 2.99094 80.8932 2.65378 80.3095 2.4486C79.7342 2.24283 78.9855 2.11145 78.0736 2.06225V1.51992H93.4202V2.06225C92.5078 2.11145 91.7602 2.24283 91.1921 2.4486C90.6168 2.65378 90.1075 2.99094 89.6557 3.45948C89.1626 3.97721 88.817 4.62693 88.6364 5.42423C88.4475 6.22153 88.3569 7.43818 88.3569 9.08197V17.6387Z" fill="white"/>
  <path d="M53.5389 57.6364C55.5762 56.9387 56.6237 56.2871 56.6237 53.2563V47.3915C56.6237 46.2096 56.7731 45.9516 58.3059 45.8761V45.6637H53.8191V45.8761C55.539 45.9516 55.6512 46.2096 55.6512 47.3915V52.6654C55.6512 56.0298 55.0903 56.8787 53.4453 57.3934L53.5389 57.6364ZM71.3237 53.7717C70.3698 54.4994 69.6967 54.6056 69.0613 54.6056C67.7715 54.6056 66.0701 53.7867 66.0887 51.4835C68.6684 51.423 71.0615 51.2562 71.3609 51.2106C71.6596 51.165 71.6782 51.12 71.6782 50.8164C71.6782 49.7408 70.5198 48.6795 68.912 48.6795C67.3972 48.6795 65.1534 50.0587 65.1534 52.2868C65.1534 53.8928 66.5183 55.3177 68.7248 55.3177C69.1549 55.3177 70.4256 55.0297 71.5288 53.999L71.3237 53.7717ZM68.4068 49.1042C69.7525 49.1042 70.5378 49.862 70.5378 50.7108C70.5378 50.8014 70.5378 50.9526 70.071 50.9526C69.2665 50.9682 66.6311 50.9988 66.2003 50.9988C66.4811 49.7708 67.4721 49.1042 68.4068 49.1042ZM86.7519 55.3177C87.6494 53.4081 88.6405 51.0438 89.1078 50.1649C89.5194 49.4072 89.6496 49.1798 90.5662 49.0587V48.8463H87.2942V49.0587C88.1917 49.1954 88.5469 49.2104 88.5469 49.559C88.5469 49.6796 88.5097 49.847 88.4347 50.0587C87.986 51.4679 87.4442 52.6504 86.9013 53.984H86.8647C85.9672 52.2107 85.2191 50.4985 84.5088 48.9225H84.2472C83.3683 50.7708 82.5458 52.4992 81.8727 53.984H81.8355C81.1624 52.6198 80.0778 49.9831 80.0778 49.589C80.0778 49.271 80.3585 49.1954 81.1438 49.0587V48.8463H77.7974V49.0587C78.7693 49.1648 78.8443 49.3616 79.2553 50.2561C80.0034 51.8321 80.6951 53.5899 81.349 55.3177H81.7048C82.4895 53.5599 83.294 51.9227 84.0787 50.2561C84.8454 51.9533 85.6679 53.5293 86.4154 55.3177H86.7519ZM102.648 53.7717C101.695 54.4994 101.022 54.6056 100.386 54.6056C99.096 54.6056 97.3952 53.7867 97.4138 51.4835C99.994 51.423 102.387 51.2562 102.686 51.2106C102.985 51.165 103.004 51.12 103.004 50.8164C103.004 49.7408 101.845 48.6795 100.237 48.6795C98.7222 48.6795 96.4791 50.0587 96.4791 52.2868C96.4791 53.8928 97.8439 55.3177 100.05 55.3177C100.48 55.3177 101.751 55.0297 102.854 53.999L102.648 53.7717ZM99.7319 49.1042C101.078 49.1042 101.863 49.862 101.863 50.7108C101.863 50.8014 101.863 50.9526 101.395 50.9526C100.592 50.9682 97.9561 50.9988 97.526 50.9988C97.8067 49.7708 98.7972 49.1042 99.7319 49.1042ZM109.496 55.1509H113.179V54.9385C111.945 54.8779 111.777 54.6655 111.777 53.7261V44.6942C111.459 44.846 110.45 45.1183 109.533 45.2095V45.3913C110.73 45.4819 110.88 45.5881 110.88 46.6338V53.7261C110.88 54.6655 110.693 54.8779 109.496 54.9385V55.1509ZM119.447 55.1509H123.13V54.9385C121.897 54.8779 121.729 54.6655 121.729 53.7261V44.6942C121.41 44.846 120.401 45.1183 119.484 45.2095V45.3913C120.681 45.4819 120.831 45.5881 120.831 46.6338V53.7261C120.831 54.6655 120.644 54.8779 119.447 54.9385V55.1509ZM135.998 53.7717C135.045 54.4994 134.372 54.6056 133.736 54.6056C132.446 54.6056 130.744 53.7867 130.763 51.4835C133.343 51.423 135.736 51.2562 136.035 51.2106C136.334 51.165 136.354 51.12 136.354 50.8164C136.354 49.7408 135.194 48.6795 133.586 48.6795C132.072 48.6795 129.829 50.0587 129.829 52.2868C129.829 53.8928 131.193 55.3177 133.4 55.3177C133.829 55.3177 135.101 55.0297 136.204 53.999L135.998 53.7717ZM133.081 49.1042C134.428 49.1042 135.213 49.862 135.213 50.7108C135.213 50.8014 135.213 50.9526 134.745 50.9526C133.941 50.9682 131.305 50.9988 130.876 50.9988C131.155 49.7708 132.147 49.1042 133.081 49.1042ZM143.145 55.1509H147.034V54.9385C145.538 54.8779 145.37 54.6811 145.37 53.7417V51.2712C145.855 50.1649 146.585 49.4828 147.089 49.4828C147.445 49.4828 147.594 49.589 147.875 49.8014C147.912 49.862 147.968 49.877 148.043 49.877C148.323 49.877 148.698 49.604 148.698 49.316C148.698 49.0737 148.342 48.6795 147.781 48.6795C146.865 48.6795 145.855 49.6496 145.407 50.4679H145.37V48.6189C144.697 48.9525 143.949 49.1342 143.182 49.2554V49.4372C144.341 49.5434 144.472 49.6346 144.472 50.7408V53.7111C144.472 54.6655 144.285 54.8779 143.145 54.9385V55.1509ZM154.517 49.0587C155.676 49.2104 155.807 49.4372 156.218 50.2105C157.284 52.3018 158.387 54.8023 158.387 54.9841C158.387 55.1509 157.452 57.151 156.087 57.9093C155.826 58.0605 155.62 58.1667 155.62 58.3785C155.62 58.697 156.013 59 156.461 59C156.704 59 156.91 58.9244 157.003 58.697C157.265 57.8937 157.77 57.0298 159.135 54.7567C160.686 52.1651 161.359 50.9226 161.92 50.1499C162.5 49.3466 162.575 49.1648 163.621 49.0587V48.8463H160.126V49.0587C160.892 49.1498 161.21 49.2404 161.21 49.6346C161.21 50.3923 159.397 53.4993 159.116 53.9684L157.097 49.9375C157.003 49.7864 156.966 49.6496 156.966 49.559C156.966 49.2554 157.284 49.1648 157.938 49.0587V48.8463H154.517V49.0587Z" fill="white"/>
</svg>