<svg width="127" height="57" viewBox="0 0 127 57" fill="none" xmlns="http://www.w3.org/2000/svg">
<path fill-rule="evenodd" clip-rule="evenodd" d="M126.909 0H0.472656V47.6727H57.3863L64.2074 57L71.0285 47.6727H126.909V0Z" fill="#1A1A1A"/>
<path d="M14.9004 25.5579C15.2982 25.5369 15.6187 25.4806 15.8582 25.3931C16.1011 25.3056 16.3159 25.1618 16.5094 24.962C16.7207 24.7412 16.8687 24.4605 16.9463 24.1241C17.0273 23.7841 17.0661 23.2655 17.0661 22.5642V14.9852C17.0661 14.2315 17.0203 13.6776 16.925 13.3271C16.8335 12.9799 16.6539 12.6892 16.3866 12.4646C16.0484 12.1842 15.5519 12.0266 14.9004 11.9915V11.7603H20.5731C21.8303 11.7603 22.6331 11.7741 22.9747 11.8022C24.4254 11.9109 25.658 12.3208 26.6685 13.0362C27.6299 13.7126 28.3798 14.603 28.9185 15.7003C29.4538 16.801 29.7216 17.9999 29.7216 19.2934C29.7216 20.2398 29.5702 21.1304 29.2636 21.9717C28.9573 22.8096 28.5314 23.5073 27.9889 24.0609C27.2249 24.8428 26.2742 25.3407 25.1332 25.5543C24.2776 25.7124 23.408 25.7894 22.5239 25.7894H14.9004V25.5579ZM71.5388 11.7603V11.9915C71.148 12.0125 70.8313 12.0686 70.5846 12.1563C70.3415 12.2438 70.1233 12.3876 69.9295 12.5874C69.6623 12.8609 69.4968 13.2429 69.4369 13.7303C69.3942 14.0946 69.3732 14.5119 69.3732 14.9852V22.5642C69.3732 23.1355 69.4017 23.5843 69.4544 23.9138C69.5106 24.2397 69.5985 24.5063 69.7255 24.7026C69.9015 24.9797 70.1339 25.1828 70.4155 25.3161C70.6974 25.4491 71.0706 25.53 71.5388 25.5579V25.7894H64.9685V25.5579C65.3663 25.5369 65.6866 25.4806 65.9333 25.3895C66.1761 25.2951 66.3907 25.1547 66.5776 24.962C66.796 24.7412 66.9438 24.4644 67.0211 24.1277C67.0951 23.7912 67.1342 23.2721 67.1342 22.5642V14.9852C67.1342 14.2768 67.0951 13.7582 67.0211 13.4217C66.9438 13.0853 66.796 12.8082 66.5776 12.5874C66.3907 12.3876 66.1761 12.2438 65.9261 12.1563C65.6794 12.0686 65.3589 12.0125 64.9685 11.9915V11.7603H71.5388ZM91.9977 11.9915C91.6069 12.0125 91.2931 12.065 91.0541 12.1491C90.8179 12.2369 90.5997 12.3771 90.399 12.5767C90.2476 12.7205 90.1348 12.8816 90.0574 13.0571C89.9834 13.2324 89.9307 13.4532 89.9022 13.7195C89.8567 14.0775 89.832 14.4981 89.832 14.9852V22.5642C89.832 23.2721 89.8745 23.7946 89.9551 24.1382C90.0397 24.4818 90.1877 24.755 90.399 24.962C90.7791 25.3268 91.3111 25.5228 91.9977 25.5579V25.7894H85.4163V25.5579C85.8144 25.5369 86.1347 25.4806 86.3811 25.3895C86.6237 25.2951 86.8424 25.1547 87.0359 24.962C87.2474 24.7412 87.3952 24.4605 87.4726 24.1241C87.5538 23.7841 87.5926 23.2655 87.5926 22.5642V13.369L82.2754 25.7894H82.0608L76.7749 13.5548V22.5642C76.7749 23.2721 76.8139 23.7912 76.8949 24.1277C76.9722 24.4644 77.1203 24.7412 77.3315 24.962C77.525 25.1618 77.7435 25.3056 77.9864 25.3931C78.2328 25.4806 78.5499 25.5369 78.9444 25.5579V25.7894H74.1869V25.5579C74.5776 25.5369 74.8947 25.4806 75.1414 25.3931C75.384 25.3056 75.6027 25.1618 75.7962 24.962C76.0075 24.7412 76.1553 24.4605 76.2329 24.1241C76.3138 23.7841 76.3526 23.2655 76.3526 22.5642V14.9852C76.3526 14.6698 76.3421 14.3717 76.3208 14.0877C76.2856 13.5829 76.2082 13.2114 76.0848 12.9799C75.9124 12.6578 75.6765 12.4191 75.3773 12.2648C75.0777 12.1108 74.6798 12.0194 74.1869 11.9915V11.7603H78.6625L83.1273 22.7499L87.7581 11.7603H91.9977V11.9915ZM112.474 11.9915C112.083 12.0125 111.77 12.065 111.53 12.1491C111.295 12.2369 111.076 12.3771 110.875 12.5767C110.724 12.7205 110.611 12.8816 110.534 13.0571C110.46 13.2324 110.407 13.4532 110.379 13.7195C110.333 14.0775 110.308 14.4981 110.308 14.9852V22.5642C110.308 23.2721 110.351 23.7946 110.432 24.1382C110.516 24.4818 110.664 24.755 110.875 24.962C111.255 25.3268 111.787 25.5228 112.474 25.5579V25.7894H105.893V25.5579C106.291 25.5369 106.611 25.4806 106.857 25.3895C107.1 25.2951 107.319 25.1547 107.512 24.962C107.724 24.7412 107.872 24.4605 107.949 24.1241C108.03 23.7841 108.069 23.2655 108.069 22.5642V13.369L102.751 25.7894H102.537L97.2513 13.5548V22.5642C97.2513 23.2721 97.2901 23.7912 97.3713 24.1277C97.4486 24.4644 97.5966 24.7412 97.8079 24.962C98.0014 25.1618 98.2201 25.3056 98.4627 25.3931C98.7094 25.4806 99.0263 25.5369 99.4205 25.5579V25.7894H94.6633V25.5579C95.0542 25.5369 95.3711 25.4806 95.6178 25.3931C95.8604 25.3056 96.0788 25.1618 96.2723 24.962C96.4839 24.7412 96.6316 24.4605 96.7092 24.1241C96.7902 23.7841 96.8285 23.2655 96.8285 22.5642V14.9852C96.8285 14.6698 96.8182 14.3717 96.7971 14.0877C96.7619 13.5829 96.6846 13.2114 96.561 12.9799C96.3888 12.6578 96.1528 12.4191 95.8537 12.2648C95.554 12.1108 95.1562 12.0194 94.6633 11.9915V11.7603H99.1389L103.604 22.7499L108.234 11.7603H112.474V11.9915ZM19.3056 12.0757V22.3048C19.3056 22.9779 19.3444 23.4896 19.4181 23.8401C19.4957 24.1876 19.6366 24.4889 19.8442 24.7343C20.2844 25.2706 21.0027 25.5369 21.9958 25.5369C22.8446 25.5369 23.5699 25.3967 24.1718 25.1196C24.7739 24.8428 25.3162 24.3907 25.7919 23.7667C26.2601 23.1634 26.6155 22.4731 26.862 21.6912C27.1048 20.9132 27.2285 20.0858 27.2285 19.2057C27.2285 18.235 27.0807 17.3058 26.7846 16.4295C26.4852 15.5494 26.063 14.7818 25.5102 14.123C24.7459 13.2114 23.8338 12.6084 22.7706 12.3103C22.1929 12.1527 21.4535 12.0757 20.5553 12.0757H19.3056ZM31.6863 18.8623C31.6863 17.7126 31.9328 16.6434 32.4295 15.6619C32.9261 14.6767 33.6477 13.8214 34.5947 13.0889C35.3063 12.5452 36.0704 12.1317 36.8874 11.8408C37.7077 11.5499 38.5316 11.4023 39.3628 11.4023C40.4226 11.4023 41.4475 11.6339 42.4403 12.0967C43.4297 12.5593 44.296 13.2114 45.0393 14.0529C46.2505 15.4232 46.856 16.9798 46.856 18.729C46.856 19.6056 46.6977 20.4501 46.3808 21.267C46.0637 22.0804 45.6026 22.8236 44.9966 23.4968C44.2539 24.3311 43.377 24.9797 42.3627 25.4386C41.3488 25.8981 40.2854 26.1259 39.1798 26.1259C38.0845 26.1259 37.0388 25.9015 36.0424 25.4566C35.0422 25.0111 34.183 24.3838 33.4611 23.5669C32.8906 22.9288 32.4506 22.2068 32.144 21.3932C31.8377 20.5834 31.6863 19.7389 31.6863 18.8623ZM34.1794 19.0094C34.1794 21.0007 34.7217 22.6763 35.8098 24.0399C36.2994 24.6501 36.817 25.0953 37.3662 25.3721C37.912 25.649 38.5458 25.7894 39.2607 25.7894C39.9826 25.7894 40.6197 25.6528 41.1656 25.379C41.715 25.1022 42.236 24.657 42.7327 24.0399C43.8209 22.6694 44.3631 20.9797 44.3631 18.9708C44.3631 17.8666 44.2115 16.8219 43.9124 15.8372C43.6132 14.8519 43.1938 14.0179 42.6482 13.334C42.208 12.7696 41.7186 12.3595 41.1764 12.1036C40.6375 11.8478 39.9965 11.7178 39.2607 11.7178C38.5316 11.7178 37.8979 11.8442 37.3662 12.1C36.8308 12.3525 36.3379 12.7629 35.8836 13.334C35.3416 14.0107 34.9191 14.845 34.623 15.8336C34.3272 16.8184 34.1794 17.8809 34.1794 19.0094ZM52.7507 18.6344L57.124 14.3157C57.557 13.8915 57.8284 13.6006 57.9338 13.4463C58.0432 13.292 58.0959 13.1239 58.0959 12.9379C58.0959 12.6012 57.9304 12.349 57.5994 12.1773C57.4267 12.0931 57.1345 12.0335 56.7297 11.9915V11.7603H61.1806V11.9915C60.8777 12.0194 60.6243 12.0686 60.4199 12.1422C60.2192 12.2123 59.9974 12.3349 59.7546 12.5066C59.4868 12.6961 59.0255 13.1063 58.3704 13.7303L55.022 16.9274L59.7826 22.9779L60.3706 23.728C60.8039 24.261 61.2544 24.6816 61.7196 24.983C62.001 25.1654 62.251 25.2984 62.4625 25.379C62.6771 25.4566 62.9449 25.5157 63.2687 25.5579V25.7894H56.4481V25.5579C56.9657 25.5157 57.3388 25.4317 57.5642 25.302C57.7929 25.1687 57.906 24.9797 57.906 24.7236C57.906 24.4503 57.7652 24.0995 57.4833 23.6756C57.3458 23.4684 57.0854 23.1145 56.7084 22.6062C56.3281 22.098 56.0078 21.6877 55.7472 21.3722L53.4232 18.5013L52.7507 19.1604V22.5642C52.7507 23.2655 52.7895 23.7841 52.8704 24.1241C52.9478 24.4605 53.0958 24.7412 53.3071 24.962C53.4937 25.1547 53.7082 25.2951 53.9547 25.3895C54.1978 25.4806 54.5219 25.5369 54.9197 25.5579V25.7894H48.3455V25.5579C48.7434 25.5369 49.0638 25.4806 49.3103 25.3895C49.5534 25.2951 49.768 25.1547 49.9546 24.962C50.1733 24.7412 50.321 24.4644 50.3981 24.1277C50.4724 23.7912 50.5112 23.2721 50.5112 22.5642V14.9852C50.5112 14.2768 50.4724 13.7582 50.3981 13.4217C50.321 13.0853 50.1733 12.8082 49.9546 12.5874C49.768 12.3876 49.5534 12.2438 49.3033 12.1563C49.0569 12.0686 48.7362 12.0125 48.3455 11.9915V11.7603H54.9197V11.9915C54.5288 12.0125 54.2086 12.0686 53.9652 12.1563C53.7188 12.2438 53.5006 12.3876 53.3071 12.5874C53.0958 12.8082 52.9478 13.0853 52.8704 13.4253C52.7895 13.7653 52.7507 14.2842 52.7507 14.9852V18.6344Z" fill="white"/>
<path d="M37.837 35.6927C38.7097 35.3952 39.1584 35.1173 39.1584 33.8248V31.3236C39.1584 30.8196 39.2224 30.7096 39.8791 30.6774V30.5868H37.957V30.6774C38.6938 30.7096 38.7418 30.8196 38.7418 31.3236V33.5728C38.7418 35.0076 38.5016 35.3696 37.7969 35.5891L37.837 35.6927ZM45.4556 34.0446C45.047 34.3549 44.7586 34.4002 44.4865 34.4002C43.9339 34.4002 43.2051 34.051 43.2131 33.0688C44.3181 33.0429 45.3433 32.9718 45.4715 32.9524C45.5995 32.9329 45.6075 32.9137 45.6075 32.7843C45.6075 32.3255 45.1112 31.8729 44.4225 31.8729C43.7736 31.8729 42.8124 32.4611 42.8124 33.4114C42.8124 34.0963 43.3971 34.7039 44.3423 34.7039C44.5266 34.7039 45.0709 34.5811 45.5435 34.1415L45.4556 34.0446ZM44.2061 32.0541C44.7825 32.0541 45.1189 32.3772 45.1189 32.7392C45.1189 32.7779 45.1189 32.8423 44.919 32.8423C44.5744 32.849 43.4454 32.862 43.2609 32.862C43.3811 32.3383 43.8057 32.0541 44.2061 32.0541ZM52.0648 34.7039C52.4492 33.8895 52.8738 32.8812 53.074 32.5064C53.2503 32.1833 53.306 32.0863 53.6987 32.0346V31.9441H52.2971V32.0346C52.6815 32.093 52.8337 32.0994 52.8337 32.248C52.8337 32.2994 52.8177 32.3708 52.7856 32.4611C52.5934 33.0621 52.3613 33.5664 52.1287 34.1351H52.1131C51.7286 33.3789 51.4081 32.6487 51.1038 31.9766H50.9918C50.6153 32.7648 50.263 33.5019 49.9746 34.1351H49.9587C49.6703 33.5534 49.2057 32.4289 49.2057 32.2608C49.2057 32.1252 49.3259 32.093 49.6624 32.0346V31.9441H48.2288V32.0346C48.6452 32.0799 48.6773 32.1638 48.8533 32.5453C49.1738 33.2174 49.4701 33.9671 49.7502 34.7039H49.9026C50.2388 33.9543 50.5834 33.2561 50.9196 32.5453C51.248 33.2691 51.6004 33.9412 51.9206 34.7039H52.0648ZM58.8744 34.0446C58.4663 34.3549 58.1776 34.4002 57.9055 34.4002C57.3527 34.4002 56.6241 34.051 56.6321 33.0688C57.7374 33.0429 58.7623 32.9718 58.8906 32.9524C59.0185 32.9329 59.0268 32.9137 59.0268 32.7843C59.0268 32.3255 58.5302 31.8729 57.8415 31.8729C57.1926 31.8729 56.2317 32.4611 56.2317 33.4114C56.2317 34.0963 56.8163 34.7039 57.7613 34.7039C57.9456 34.7039 58.4902 34.5811 58.9625 34.1415L58.8744 34.0446ZM57.6251 32.0541C58.2018 32.0541 58.538 32.3772 58.538 32.7392C58.538 32.7779 58.538 32.8423 58.3378 32.8423C57.9936 32.849 56.8644 32.862 56.6801 32.862C56.8004 32.3383 57.2247 32.0541 57.6251 32.0541ZM61.808 34.6328H63.3857V34.5422C62.857 34.5164 62.7851 34.4258 62.7851 34.0251V30.1733C62.6489 30.2381 62.2163 30.3542 61.8239 30.3931V30.4706C62.3366 30.5093 62.4006 30.5546 62.4006 31.0005V34.0251C62.4006 34.4258 62.3207 34.5164 61.808 34.5422V34.6328ZM66.0707 34.6328H67.6484V34.5422C67.1201 34.5164 67.0481 34.4258 67.0481 34.0251V30.1733C66.9116 30.2381 66.4794 30.3542 66.0867 30.3931V30.4706C66.5991 30.5093 66.6634 30.5546 66.6634 31.0005V34.0251C66.6634 34.4258 66.5835 34.5164 66.0707 34.5422V34.6328ZM73.1607 34.0446C72.7524 34.3549 72.464 34.4002 72.1916 34.4002C71.6391 34.4002 70.9102 34.051 70.9182 33.0688C72.0235 33.0429 73.0487 32.9718 73.1767 32.9524C73.3047 32.9329 73.3131 32.9137 73.3131 32.7843C73.3131 32.3255 72.8164 31.8729 72.1276 31.8729C71.479 31.8729 70.5181 32.4611 70.5181 33.4114C70.5181 34.0963 71.1025 34.7039 72.0477 34.7039C72.2317 34.7039 72.7765 34.5811 73.2489 34.1415L73.1607 34.0446ZM71.9112 32.0541C72.4882 32.0541 72.8243 32.3772 72.8243 32.7392C72.8243 32.7779 72.8243 32.8423 72.6241 32.8423C72.2798 32.849 71.1505 32.862 70.9665 32.862C71.0863 32.3383 71.5111 32.0541 71.9112 32.0541ZM76.2223 34.6328H77.8882V34.5422C77.2475 34.5164 77.1755 34.4324 77.1755 34.0318V32.9782C77.3834 32.5064 77.6959 32.2155 77.9121 32.2155C78.0645 32.2155 78.1285 32.2608 78.2487 32.3514C78.2644 32.3772 78.2886 32.3836 78.3207 32.3836C78.4407 32.3836 78.6011 32.2672 78.6011 32.1444C78.6011 32.041 78.4487 31.8729 78.2084 31.8729C77.816 31.8729 77.3834 32.2866 77.1912 32.6356H77.1755V31.8471C76.8872 31.9894 76.5667 32.0669 76.2383 32.1186V32.1961C76.7348 32.2414 76.7911 32.2803 76.7911 32.752V34.0187C76.7911 34.4258 76.7109 34.5164 76.2223 34.5422V34.6328ZM81.0939 32.0346C81.5905 32.0994 81.6465 32.1961 81.8228 32.5259C82.2792 33.4178 82.7518 34.4841 82.7518 34.5616C82.7518 34.6328 82.3512 35.4858 81.7665 35.8092C81.6547 35.8736 81.5666 35.9189 81.5666 36.0092C81.5666 36.1451 81.7346 36.2743 81.9269 36.2743C82.0309 36.2743 82.1191 36.2421 82.1589 36.1451C82.2712 35.8025 82.4874 35.4341 83.072 34.4647C83.7366 33.3594 84.025 32.8296 84.2653 32.5C84.5138 32.1574 84.5456 32.0799 84.9941 32.0346V31.9441H83.4966V32.0346C83.8248 32.0735 83.961 32.1122 83.961 32.2803C83.961 32.6034 83.1843 33.9284 83.0641 34.1285L82.1993 32.4095C82.1589 32.345 82.143 32.2866 82.143 32.248C82.143 32.1186 82.2792 32.0799 82.5596 32.0346V31.9441H81.0939V32.0346Z" fill="white"/>
</svg>
