<svg xmlns="http://www.w3.org/2000/svg" width="228" height="59" fill="none"><path d="M0 33.873c.929-.049 1.677-.18 2.236-.386a3.976 3.976 0 0 0 1.52-1.011c.493-.518.839-1.176 1.02-1.965.189-.797.28-2.013.28-3.657V9.082c0-1.767-.107-3.066-.33-3.888A3.872 3.872 0 0 0 3.47 3.172C2.68 2.514 1.521 2.144 0 2.062V1.52h13.242c2.935 0 4.81.032 5.606.098 3.387.255 6.264 1.216 8.623 2.894 2.244 1.586 3.995 3.674 5.253 6.247 1.25 2.58 1.874 5.392 1.874 8.425 0 2.22-.353 4.308-1.069 6.28-.715 1.965-1.709 3.6-2.975 4.9-1.784 1.832-4.003 3-6.667 3.5a33.181 33.181 0 0 1-6.09.552H0v-.543ZM132.216 1.52v.542c-.913.05-1.652.18-2.228.387a4.007 4.007 0 0 0-1.529 1.01c-.624.642-1.01 1.537-1.15 2.68-.1.855-.149 1.833-.149 2.943v17.771c0 1.34.067 2.392.19 3.165.131.764.336 1.39.632 1.85a3.82 3.82 0 0 0 1.611 1.438c.658.312 1.529.502 2.623.567v.543h-15.338v-.543c.929-.049 1.676-.18 2.252-.395a4.169 4.169 0 0 0 1.504-1.002c.51-.518.855-1.167 1.035-1.956.173-.79.264-2.006.264-3.666V9.082c0-1.661-.091-2.877-.264-3.666-.18-.79-.525-1.439-1.035-1.957a3.747 3.747 0 0 0-1.521-1.01c-.576-.206-1.324-.338-2.235-.387V1.52h15.338Zm47.758.542c-.912.05-1.645.172-2.203.37a4.263 4.263 0 0 0-1.529 1.002 3.48 3.48 0 0 0-.797 1.127c-.173.41-.296.929-.362 1.553a23.74 23.74 0 0 0-.164 2.968v17.771c0 1.66.099 2.886.287 3.691.198.806.543 1.447 1.036 1.932.887.855 2.129 1.315 3.732 1.397v.543h-15.363v-.543c.929-.049 1.677-.18 2.252-.395a4.414 4.414 0 0 0 1.529-1.002c.493-.518.838-1.176 1.019-1.965.189-.797.28-2.013.28-3.657V5.291l-12.412 29.124h-.501l-12.34-28.688v21.126c0 1.66.092 2.877.281 3.666.18.79.526 1.438 1.019 1.956a3.99 3.99 0 0 0 1.528 1.01c.576.206 1.316.338 2.237.387v.543h-11.106v-.543c.912-.049 1.652-.18 2.228-.386a4.007 4.007 0 0 0 1.529-1.011c.493-.518.838-1.176 1.019-1.965.189-.797.28-2.013.28-3.657V9.082c0-.74-.025-1.439-.075-2.105-.082-1.183-.262-2.054-.55-2.597-.403-.756-.954-1.315-1.652-1.677-.699-.361-1.628-.575-2.779-.64V1.52h10.448l10.422 25.77 10.81-25.77h9.897v.542Zm47.799 0c-.912.05-1.643.172-2.202.37a4.254 4.254 0 0 0-1.529 1.002 3.468 3.468 0 0 0-.798 1.127c-.172.41-.296.929-.362 1.553a23.74 23.74 0 0 0-.164 2.968v17.771c0 1.66.099 2.886.288 3.691.196.806.543 1.447 1.036 1.932.887.855 2.129 1.315 3.731 1.397v.543H212.41v-.543c.93-.049 1.677-.18 2.253-.395a4.41 4.41 0 0 0 1.528-1.002c.493-.518.839-1.176 1.02-1.965.189-.797.28-2.013.28-3.657V5.291l-12.413 29.124h-.501L192.238 5.728v21.126c0 1.66.091 2.877.28 3.666.181.79.526 1.438 1.019 1.956.452.469.963.806 1.529 1.01.576.206 1.316.338 2.236.387v.543h-11.105v-.543c.912-.049 1.652-.18 2.228-.386a4.011 4.011 0 0 0 1.528-1.011c.494-.518.839-1.176 1.02-1.965.189-.797.278-2.013.278-3.657V9.082c0-.74-.024-1.439-.073-2.105-.082-1.183-.263-2.054-.551-2.597-.402-.756-.953-1.315-1.651-1.677-.7-.361-1.629-.575-2.779-.64V1.52h10.447l10.424 25.77 10.809-25.77h9.896v.542Zm-217.49.198v23.985c0 1.579.09 2.778.263 3.6.181.815.51 1.522.995 2.097 1.027 1.258 2.704 1.882 5.022 1.882 1.982 0 3.675-.329 5.08-.978 1.405-.65 2.671-1.71 3.782-3.173 1.093-1.414 1.923-3.033 2.498-4.866.567-1.825.855-3.765.855-5.829 0-2.276-.345-4.455-1.036-6.51-.699-2.063-1.684-3.863-2.975-5.408-1.784-2.137-3.913-3.551-6.395-4.25-1.349-.37-3.075-.55-5.171-.55h-2.918Zm28.902 15.913c0-2.696.575-5.203 1.735-7.504 1.159-2.31 2.843-4.316 5.054-6.034a19.557 19.557 0 0 1 5.352-2.926C53.24 1.027 55.164.68 57.104.68c2.474 0 4.867.543 7.184 1.628 2.31 1.084 4.333 2.614 6.068 4.587 2.827 3.213 4.24 6.863 4.24 10.965 0 2.055-.37 4.035-1.109 5.95a17.008 17.008 0 0 1-3.231 5.23 18.195 18.195 0 0 1-6.149 4.553 17.749 17.749 0 0 1-7.43 1.611c-2.557 0-4.998-.526-7.324-1.57a17.364 17.364 0 0 1-6.025-4.43 16.096 16.096 0 0 1-3.075-5.097 16.705 16.705 0 0 1-1.068-5.935Zm5.82.345c0 4.67 1.265 8.598 3.805 11.796 1.143 1.43 2.352 2.475 3.634 3.124 1.274.649 2.753.978 4.422.978 1.685 0 3.173-.32 4.447-.962 1.282-.65 2.499-1.693 3.658-3.14 2.54-3.214 3.806-7.176 3.806-11.886 0-2.59-.354-5.04-1.052-7.348-.698-2.31-1.677-4.266-2.951-5.87-1.028-1.323-2.17-2.285-3.436-2.885-1.258-.6-2.754-.905-4.472-.905-1.702 0-3.181.297-4.422.897-1.25.592-2.4 1.554-3.461 2.893-1.266 1.587-2.252 3.543-2.943 5.861-.69 2.31-1.035 4.8-1.035 7.447Zm43.352-.88L98.566 7.513c1.01-.995 1.644-1.677 1.89-2.039.256-.361.379-.755.379-1.192 0-.79-.387-1.38-1.16-1.783-.403-.198-1.085-.337-2.03-.436V1.52h10.391v.542c-.708.066-1.299.18-1.776.354-.469.164-.986.451-1.553.854-.626.444-1.702 1.406-3.232 2.87l-7.816 7.496 11.113 14.188 1.373 1.759c1.011 1.25 2.063 2.236 3.149 2.942.657.428 1.24.74 1.734.929.501.182 1.126.32 1.882.42v.542H96.988v-.543c1.208-.099 2.08-.295 2.606-.6.533-.312.797-.756.797-1.356 0-.64-.328-1.463-.987-2.457-.32-.486-.928-1.316-1.808-2.508a79.087 79.087 0 0 0-2.244-2.894l-5.425-6.731-1.57 1.545v7.982c0 1.644.09 2.86.28 3.657.18.79.526 1.447 1.019 1.965a4.11 4.11 0 0 0 1.511 1.002c.568.214 1.325.346 2.253.395v.543H78.074v-.543c.928-.049 1.676-.18 2.252-.395a4.16 4.16 0 0 0 1.504-1.002c.51-.518.855-1.167 1.035-1.956.174-.79.264-2.006.264-3.666V9.082c0-1.661-.09-2.877-.264-3.666-.18-.79-.525-1.439-1.035-1.957a3.743 3.743 0 0 0-1.52-1.01c-.576-.206-1.325-.338-2.236-.387V1.52H93.42v.542c-.912.05-1.66.18-2.228.387a3.97 3.97 0 0 0-1.536 1.01c-.493.518-.839 1.168-1.02 1.965-.188.798-.28 2.014-.28 3.658v8.557ZM53.539 57.636c2.037-.697 3.085-1.349 3.085-4.38v-5.864c0-1.182.15-1.44 1.682-1.516v-.212h-4.487v.212c1.72.076 1.832.334 1.832 1.516v5.273c0 3.365-.56 4.214-2.206 4.728l.094.243Zm17.785-3.864c-.954.727-1.627.834-2.263.834-1.29 0-2.99-.82-2.972-3.123 2.58-.06 4.972-.227 5.272-.272.299-.046.317-.091.317-.395 0-1.075-1.158-2.137-2.766-2.137-1.515 0-3.759 1.38-3.759 3.608 0 1.606 1.365 3.03 3.572 3.03.43 0 1.7-.287 2.804-1.318l-.205-.227Zm-2.917-4.668c1.346 0 2.13.758 2.13 1.607 0 .09 0 .242-.466.242-.805.015-3.44.046-3.87.046.28-1.228 1.271-1.895 2.206-1.895Zm18.345 6.214c.897-1.91 1.889-4.274 2.356-5.153.411-.758.542-.985 1.458-1.106v-.213h-3.272v.213c.898.136 1.253.151 1.253.5 0 .12-.037.288-.112.5-.449 1.409-.99 2.591-1.534 3.925h-.036c-.898-1.773-1.646-3.486-2.356-5.062h-.262c-.879 1.849-1.701 3.577-2.374 5.062h-.038c-.673-1.364-1.757-4-1.757-4.395 0-.318.28-.394 1.066-.53v-.213h-3.347v.213c.972.106 1.047.303 1.458 1.197.748 1.576 1.44 3.334 2.094 5.062h.356c.785-1.758 1.589-3.395 2.374-5.062.766 1.697 1.589 3.273 2.336 5.062h.337Zm15.896-1.546c-.953.727-1.626.834-2.262.834-1.29 0-2.99-.82-2.972-3.123 2.58-.06 4.973-.227 5.272-.272.299-.046.318-.091.318-.395 0-1.075-1.159-2.137-2.767-2.137-1.515 0-3.758 1.38-3.758 3.608 0 1.606 1.365 3.03 3.571 3.03.43 0 1.701-.287 2.804-1.318l-.206-.227Zm-2.916-4.668c1.346 0 2.131.758 2.131 1.607 0 .09 0 .242-.468.242-.803.015-3.439.046-3.869.046.28-1.228 1.271-1.895 2.206-1.895Zm9.764 6.047h3.683v-.213c-1.234-.06-1.402-.273-1.402-1.212v-9.032c-.318.152-1.327.424-2.244.515v.182c1.197.09 1.347.197 1.347 1.243v7.092c0 .94-.187 1.152-1.384 1.212v.213Zm9.951 0h3.683v-.213c-1.233-.06-1.401-.273-1.401-1.212v-9.032c-.319.152-1.328.424-2.245.515v.182c1.197.09 1.347.197 1.347 1.243v7.092c0 .94-.187 1.152-1.384 1.212v.213Zm16.551-1.38c-.953.728-1.626.835-2.262.835-1.29 0-2.992-.82-2.973-3.123 2.58-.06 4.973-.227 5.272-.272.299-.046.319-.091.319-.395 0-1.075-1.16-2.137-2.768-2.137-1.514 0-3.757 1.38-3.757 3.608 0 1.606 1.364 3.03 3.571 3.03.429 0 1.701-.287 2.804-1.318l-.206-.227Zm-2.917-4.667c1.347 0 2.132.758 2.132 1.607 0 .09 0 .242-.468.242-.804.015-3.44.046-3.869.046.279-1.228 1.271-1.895 2.205-1.895Zm10.064 6.047h3.889v-.213c-1.496-.06-1.664-.257-1.664-1.196v-2.47c.485-1.107 1.215-1.79 1.719-1.79.356 0 .505.107.786.32.037.06.093.075.168.075.28 0 .655-.273.655-.561 0-.242-.356-.637-.917-.637-.916 0-1.926.97-2.374 1.789h-.037v-1.85c-.673.334-1.421.516-2.188.637v.182c1.159.106 1.29.198 1.29 1.304v2.97c0 .955-.187 1.167-1.327 1.227v.213Zm11.372-6.092c1.159.151 1.29.378 1.701 1.152 1.066 2.09 2.169 4.591 2.169 4.773 0 .167-.935 2.167-2.3 2.925-.261.151-.467.258-.467.47 0 .318.393.621.841.621.243 0 .449-.076.542-.303.262-.803.767-1.667 2.132-3.94 1.551-2.592 2.224-3.834 2.785-4.607.58-.803.655-.985 1.701-1.091v-.213h-3.495v.213c.766.09 1.084.181 1.084.576 0 .757-1.813 3.864-2.094 4.333l-2.019-4.03a.767.767 0 0 1-.131-.379c0-.304.318-.394.972-.5v-.213h-3.421v.213Z" fill="#fff"/></svg>