<svg width="127" height="57" fill="none" xmlns="http://www.w3.org/2000/svg"><path fill-rule="evenodd" clip-rule="evenodd" d="M126.909 0H.473v47.673h56.913L64.207 57l6.822-9.327h55.88V0Z" fill="#1A1A1A"/><path d="M14.9 25.558c.398-.021.719-.077.958-.165a1.69 1.69 0 0 0 .651-.431c.212-.22.36-.502.437-.838.081-.34.12-.858.12-1.56v-7.579c0-.753-.046-1.307-.141-1.658a1.65 1.65 0 0 0-.538-.862c-.339-.28-.835-.438-1.487-.473v-.232h5.673c1.257 0 2.06.014 2.402.042 1.45.109 2.683.519 3.694 1.234.96.677 1.71 1.567 2.25 2.664.535 1.101.803 2.3.803 3.593a7.75 7.75 0 0 1-.458 2.679c-.307.838-.733 1.535-1.275 2.089-.764.782-1.715 1.28-2.856 1.493-.855.158-1.725.235-2.61.235H14.9v-.231ZM71.54 11.76v.232c-.391.02-.708.077-.954.164a1.718 1.718 0 0 0-.655.431c-.268.274-.433.656-.493 1.143a10.89 10.89 0 0 0-.064 1.255v7.58c0 .57.029 1.02.081 1.349.057.326.145.592.272.789.175.277.408.48.69.613.281.133.655.214 1.123.242v.231h-6.57v-.231c.397-.021.718-.077.964-.168.243-.095.458-.235.645-.428.218-.22.366-.498.443-.834.074-.337.113-.856.113-1.564v-7.579c0-.708-.039-1.227-.113-1.563a1.696 1.696 0 0 0-.443-.835 1.607 1.607 0 0 0-.652-.43 3.426 3.426 0 0 0-.957-.165v-.232h6.57Zm20.459.232c-.391.02-.705.073-.944.157a1.824 1.824 0 0 0-.655.428 1.486 1.486 0 0 0-.342.48 2.366 2.366 0 0 0-.155.662c-.045.359-.07.78-.07 1.266v7.58c0 .707.043 1.23.123 1.573.085.344.233.617.444.824.38.365.912.56 1.599.596v.231h-6.582v-.231c.398-.021.719-.077.965-.168.243-.095.461-.235.655-.428.211-.22.36-.502.437-.838.08-.34.12-.858.12-1.56V13.37l-5.318 12.42h-.214l-5.286-12.234v9.01c0 .707.039 1.226.12 1.563a1.716 1.716 0 0 0 1.091 1.265c.247.088.564.144.958.165v.231h-4.757v-.231c.39-.021.708-.077.954-.165a1.718 1.718 0 0 0 1.092-1.269c.08-.34.12-.858.12-1.56v-7.579c0-.315-.01-.613-.032-.897-.035-.505-.113-.877-.236-1.108a1.659 1.659 0 0 0-.708-.715c-.3-.154-.697-.246-1.19-.274v-.23h4.475l4.465 10.989 4.631-10.99h4.24v.232Zm20.476 0c-.391.02-.704.073-.944.157a1.837 1.837 0 0 0-.655.428 1.484 1.484 0 0 0-.341.48 2.35 2.35 0 0 0-.155.662 10.03 10.03 0 0 0-.071 1.266v7.58c0 .707.043 1.23.124 1.573.084.344.232.617.443.824.38.365.912.56 1.599.596v.231h-6.581v-.231c.398-.021.718-.077.964-.168a1.88 1.88 0 0 0 .655-.428c.212-.22.36-.502.437-.838.081-.34.12-.858.12-1.56V13.37l-5.318 12.42h-.214l-5.286-12.234v9.01c0 .707.04 1.226.12 1.563a1.718 1.718 0 0 0 1.091 1.265c.247.088.564.144.959.165v.231h-4.758v-.231c.391-.021.708-.077.955-.165a1.717 1.717 0 0 0 1.091-1.269c.081-.34.12-.858.12-1.56v-7.579c0-.315-.01-.613-.032-.897-.035-.505-.112-.877-.236-1.108a1.658 1.658 0 0 0-.707-.715c-.3-.154-.698-.246-1.19-.274v-.23h4.475l4.465 10.989 4.63-10.99h4.24v.232Zm-93.168.084v10.229c0 .673.038 1.185.112 1.535.078.348.219.649.426.894.44.537 1.159.803 2.152.803.849 0 1.574-.14 2.176-.417.602-.277 1.144-.73 1.62-1.353a6.567 6.567 0 0 0 1.07-2.076 8.293 8.293 0 0 0 .367-2.485c0-.971-.148-1.9-.444-2.776a7.098 7.098 0 0 0-1.275-2.307c-.764-.912-1.676-1.515-2.74-1.813-.577-.157-1.317-.234-2.215-.234h-1.25Zm12.38 6.786c0-1.15.247-2.219.743-3.2.497-.985 1.219-1.84 2.166-2.573a8.388 8.388 0 0 1 2.292-1.248 7.36 7.36 0 0 1 2.476-.439c1.06 0 2.084.232 3.077.695a7.91 7.91 0 0 1 2.6 1.956c1.21 1.37 1.816 2.927 1.816 4.676 0 .877-.158 1.721-.475 2.538a7.248 7.248 0 0 1-1.384 2.23 7.79 7.79 0 0 1-2.634 1.942 7.632 7.632 0 0 1-3.183.687 7.613 7.613 0 0 1-3.138-.67 7.438 7.438 0 0 1-2.58-1.89 6.86 6.86 0 0 1-1.318-2.173 7.097 7.097 0 0 1-.458-2.53Zm2.493.147c0 1.992.543 3.667 1.63 5.03.49.611 1.008 1.056 1.557 1.333.546.277 1.18.417 1.895.417.722 0 1.359-.136 1.905-.41.549-.277 1.07-.722 1.567-1.34 1.088-1.37 1.63-3.06 1.63-5.068 0-1.104-.151-2.15-.45-3.134-.3-.985-.72-1.82-1.265-2.503-.44-.564-.93-.974-1.472-1.23-.538-.256-1.18-.386-1.915-.386-.73 0-1.363.126-1.895.382-.535.252-1.028.663-1.482 1.234-.542.677-.965 1.511-1.261 2.5a11.009 11.009 0 0 0-.444 3.175Zm18.572-.375 4.373-4.318c.433-.425.704-.715.81-.87a.855.855 0 0 0 .162-.508c0-.337-.166-.589-.497-.76-.172-.085-.464-.145-.87-.187v-.23h4.452v.23a3.123 3.123 0 0 0-.761.151c-.2.07-.423.193-.665.365-.268.19-.73.6-1.385 1.223l-3.348 3.197 4.76 6.05.589.751c.433.533.883.954 1.349 1.255.281.182.531.315.742.396.215.078.483.137.807.179v.231h-6.82v-.231c.517-.042.89-.126 1.115-.256.229-.133.342-.322.342-.578 0-.274-.14-.625-.423-1.048a32.075 32.075 0 0 0-.775-1.07c-.38-.508-.7-.918-.96-1.234l-2.325-2.87-.672.658v3.404c0 .701.038 1.22.12 1.56.077.337.225.617.436.838.187.193.401.333.648.428.243.09.567.147.965.168v.231h-6.575v-.231c.398-.021.719-.077.965-.168.243-.095.458-.235.645-.428a1.69 1.69 0 0 0 .443-.834c.074-.337.113-.856.113-1.564v-7.579c0-.708-.039-1.227-.113-1.563a1.692 1.692 0 0 0-.443-.835 1.604 1.604 0 0 0-.652-.43 3.42 3.42 0 0 0-.957-.165v-.232h6.574v.232c-.391.02-.711.077-.955.164a1.701 1.701 0 0 0-.658.431c-.211.221-.36.498-.437.838-.08.34-.12.86-.12 1.56v3.65ZM37.837 35.693c.873-.298 1.321-.576 1.321-1.868v-2.501c0-.504.064-.614.721-.647v-.09h-1.922v.09c.737.033.785.143.785.647v2.249c0 1.435-.24 1.797-.945 2.016l.04.104Zm7.619-1.648c-.409.31-.697.355-.97.355-.552 0-1.28-.349-1.273-1.331a34.863 34.863 0 0 0 2.258-.117c.129-.02.137-.038.137-.168 0-.459-.497-.911-1.185-.911-.65 0-1.61.588-1.61 1.538 0 .685.584 1.293 1.53 1.293.184 0 .728-.123 1.2-.563l-.087-.096Zm-1.25-1.99c.576 0 .913.322.913.684 0 .039 0 .103-.2.103-.345.007-1.474.02-1.658.02.12-.524.545-.808.945-.808Zm7.859 2.649c.384-.815.809-1.823 1.009-2.198.176-.323.232-.42.625-.471v-.09h-1.402v.09c.385.058.537.064.537.213a.687.687 0 0 1-.048.213c-.193.601-.425 1.105-.657 1.674h-.016c-.384-.756-.705-1.486-1.01-2.158h-.111a131.05 131.05 0 0 0-1.017 2.158h-.016c-.289-.582-.753-1.706-.753-1.874 0-.136.12-.168.456-.226v-.09H48.23v.09c.416.045.448.129.624.51.32.672.617 1.422.897 2.159h.153c.336-.75.68-1.448 1.017-2.159.328.724.68 1.396 1 2.159h.145Zm6.81-.66c-.409.31-.697.356-.97.356-.552 0-1.28-.349-1.273-1.331a34.858 34.858 0 0 0 2.259-.117c.128-.02.136-.038.136-.168 0-.459-.497-.911-1.185-.911-.65 0-1.61.588-1.61 1.538 0 .685.584 1.293 1.53 1.293.184 0 .728-.123 1.2-.563l-.088-.096Zm-1.25-1.99c.577 0 .913.323.913.685 0 .039 0 .103-.2.103-.344.007-1.474.02-1.658.02.12-.524.545-.808.945-.808Zm4.183 2.579h1.578v-.09c-.529-.027-.6-.117-.6-.518v-3.852c-.137.065-.57.181-.962.22v.078c.513.038.577.084.577.53v3.024c0 .4-.08.491-.593.517v.09Zm4.263 0h1.577v-.09c-.528-.027-.6-.117-.6-.518v-3.852c-.136.065-.569.181-.961.22v.078c.512.038.576.084.576.53v3.024c0 .4-.08.491-.592.517v.09Zm7.09-.588c-.409.31-.697.355-.97.355-.552 0-1.28-.349-1.273-1.331a34.843 34.843 0 0 0 2.259-.117c.128-.02.136-.038.136-.168 0-.459-.497-.911-1.185-.911-.649 0-1.61.588-1.61 1.538 0 .685.585 1.293 1.53 1.293.184 0 .728-.123 1.2-.563l-.087-.096Zm-1.25-1.99c.577 0 .913.322.913.684 0 .039 0 .103-.2.103-.344.007-1.474.02-1.657.02.12-.524.544-.808.944-.808Zm4.311 2.578h1.666v-.09c-.64-.027-.713-.11-.713-.511v-1.054c.208-.472.52-.763.737-.763.152 0 .216.046.337.136.015.026.04.033.072.033.12 0 .28-.117.28-.24 0-.103-.152-.271-.393-.271-.392 0-.825.414-1.017.763h-.016v-.789a3.25 3.25 0 0 1-.937.272v.077c.497.045.553.084.553.556v1.267c0 .407-.08.497-.569.523v.09Zm4.872-2.598c.497.064.553.161.729.49.456.893.929 1.96.929 2.037 0 .07-.4.924-.986 1.247-.111.065-.2.11-.2.2 0 .136.169.265.36.265.105 0 .193-.032.233-.129.112-.343.328-.71.913-1.68.665-1.106.953-1.635 1.193-1.965.249-.343.28-.42.73-.465v-.09h-1.498v.09c.328.039.464.077.464.245 0 .323-.777 1.648-.897 1.849l-.865-1.72a.326.326 0 0 1-.056-.161c0-.13.136-.168.417-.213v-.09h-1.466v.09Z" fill="#fff"/></svg>