<svg xmlns="http://www.w3.org/2000/svg" width="49" height="44" fill="none"><path d="M35.463 15.048c-2.288 0-4.067-.699-5.338-2.096-1.399-1.396-2.098-3.174-2.098-5.333 0-5.08 2.924-7.619 8.77-7.619 3.814 0 6.8 1.397 8.962 4.19C47.919 7.111 49 11.238 49 16.571c0 5.08-1.144 9.778-3.432 14.096-2.288 4.444-5.656 8.825-10.105 13.142-.127.128-.318.191-.572.191-.381 0-.699-.19-.953-.571-.255-.381-.255-.699 0-.953C40.166 36.127 43.28 28.635 43.28 20c0-3.556-.635-6.159-1.907-7.81-1.143 1.905-3.114 2.858-5.91 2.858Zm-28.027 0c-2.288 0-4.068-.699-5.339-2.096C.7 11.556 0 9.778 0 7.62 0 2.539 2.923 0 8.77 0c3.814 0 6.8 1.397 8.962 4.19 2.16 2.921 3.24 7.048 3.24 12.381 0 5.08-1.143 9.778-3.431 14.096-2.288 4.444-5.656 8.825-10.105 13.142-.127.128-.318.191-.572.191-.382 0-.7-.19-.953-.571-.255-.381-.255-.699 0-.953 6.228-6.349 9.342-13.841 9.342-22.476 0-3.556-.636-6.159-1.907-7.81-1.144 1.905-3.114 2.858-5.91 2.858Z" fill="#fff"/></svg>