<svg xmlns="http://www.w3.org/2000/svg" width="49" height="44" viewBox="0 0 49 44" fill="none">
  <path d="M35.463 15.0476C33.1751 15.0476 31.3956 14.3492 30.1245 12.9524C28.7263 11.5556 28.0272 9.77778 28.0272 7.61905C28.0272 2.53968 30.9507 2.23678e-06 36.7977 2.74794e-06C40.6109 3.0813e-06 43.5979 1.39683 45.7588 4.19048C47.9196 7.11111 49 11.2381 49 16.5714C49 21.6508 47.856 26.3492 45.5681 30.6667C43.2802 35.1111 39.9118 39.4921 35.463 43.8095C35.3359 43.9365 35.1453 44 34.891 44C34.5097 44 34.192 43.8095 33.9377 43.4286C33.6835 43.0476 33.6835 42.7302 33.9377 42.4762C40.166 36.127 43.2802 28.6349 43.2802 20C43.2802 16.4444 42.6446 13.8413 41.3735 12.1905C40.2296 14.0952 38.2594 15.0476 35.463 15.0476ZM7.4358 15.0476C5.14786 15.0476 3.36835 14.3492 2.09727 12.9524C0.699092 11.5556 -8.22896e-07 9.77777 -6.34174e-07 7.61904C-1.90121e-07 2.53968 2.92348 -2.13441e-07 8.77043 2.97716e-07C12.5837 6.31079e-07 15.5707 1.39682 17.7315 4.19047C19.8923 7.11111 20.9728 11.2381 20.9728 16.5714C20.9728 21.6508 19.8288 26.3492 17.5409 30.6667C15.2529 35.1111 11.8846 39.4921 7.43579 43.8095C7.30869 43.9365 7.11803 44 6.86382 44C6.48249 44 6.16472 43.8095 5.91051 43.4286C5.65629 43.0476 5.65629 42.7301 5.91051 42.4762C12.1388 36.127 15.2529 28.6349 15.2529 20C15.2529 16.4444 14.6174 13.8413 13.3463 12.1905C12.2023 14.0952 10.2322 15.0476 7.4358 15.0476Z" fill="white"/>
</svg>